<svg width="118" height="39" viewBox="0 0 118 39" fill="none" xmlns="http://www.w3.org/2000/svg">
<path fill-rule="evenodd" clip-rule="evenodd" d="M95.9729 11.0857L95.0096 14.6776C94.9569 14.8745 94.7795 15.011 94.5747 15.011H92.5565C90.6377 15.011 88.0734 16.5496 88.0715 19.496C88.0695 21.9218 90.0234 23.9713 92.5565 23.981C93.2331 23.983 94.1379 23.9849 94.6254 23.9849C94.8282 23.9849 95.0076 23.8484 95.0603 23.6515L98.5235 10.7483C98.5586 10.6177 98.6775 10.526 98.814 10.526H104.444C109.494 10.526 113.396 14.6152 113.398 19.496C113.4 24.1975 109.711 28.466 104.444 28.466C104.444 28.466 102.476 28.4777 101.462 28.4816C101.166 28.4836 100.949 28.2028 101.025 27.9161L101.993 24.3145C102.045 24.1175 102.223 23.981 102.427 23.981H104.446C106.803 23.981 108.927 22.0076 108.927 19.496C108.927 16.8869 106.71 15.0091 104.446 15.011C103.338 15.013 102.753 15.013 102.443 15.011C102.24 15.011 102.061 15.1475 102.008 15.3445L98.5703 28.1326C98.5176 28.3295 98.3402 28.466 98.1354 28.466H92.5565C87.0789 28.466 83.606 24.0064 83.6021 19.496C83.5962 14.9876 87.1004 10.5319 92.5467 10.526C92.5506 10.526 92.5545 10.526 92.5584 10.526C92.6364 10.528 94.5435 10.5221 95.5361 10.5182C95.8344 10.5182 96.0489 10.799 95.9729 11.0857Z" fill="#464646"/>
<path d="M6.00703 17.623L6.02168 18.3018L6.30489 17.6377L8.34102 13.3115H8.87813L9.39571 17.6719L9.43477 18.3164L9.71309 17.5986L11.5295 13.3115H12.1301L9.64473 19H9.08321L8.52657 14.4053L8.50703 14.0488L8.34102 14.4395L6.17793 19H5.62129L5.10371 13.3115H5.675L6.00703 17.623ZM15.2398 16.2998H12.5104L12.1246 18.5068H15.274L15.1861 19H11.4606L12.4469 13.3115H16.1578L16.065 13.8145H12.94L12.5934 15.8018H15.3277L15.2398 16.2998ZM15.5957 19L16.582 13.3115L18.3008 13.3164C18.903 13.3327 19.3571 13.471 19.6631 13.7314C19.9723 13.9886 20.1074 14.3402 20.0684 14.7861C20.0195 15.3916 19.6419 15.818 18.9355 16.0654C19.2253 16.1501 19.4515 16.3096 19.6143 16.5439C19.777 16.7783 19.8486 17.0518 19.8291 17.3643C19.7966 17.8688 19.5866 18.2676 19.1992 18.5605C18.8151 18.8535 18.304 19 17.666 19H15.5957ZM16.6406 16.3096L16.2598 18.5068L17.6855 18.5117C18.1152 18.5117 18.4733 18.4108 18.7598 18.209C19.0495 18.0039 19.2139 17.7223 19.2529 17.3643C19.2887 17.0452 19.209 16.7946 19.0137 16.6123C18.8216 16.43 18.5417 16.3307 18.1738 16.3145L16.6406 16.3096ZM16.7236 15.8408L17.9492 15.8457C18.4017 15.8457 18.763 15.7529 19.0332 15.5674C19.3034 15.3818 19.4564 15.1247 19.4922 14.7959C19.5247 14.4899 19.4369 14.2523 19.2285 14.083C19.0234 13.9105 18.6947 13.8226 18.2422 13.8193L17.0752 13.8145L16.7236 15.8408ZM23.7201 17.5547C23.7755 17.0794 23.4906 16.736 22.8656 16.5244L22.1283 16.2949L21.8598 16.1973C21.0395 15.8848 20.6505 15.4062 20.6928 14.7617C20.7221 14.3288 20.9206 13.9756 21.2885 13.7021C21.6563 13.4255 22.1267 13.2708 22.6996 13.2383L22.9047 13.2334C23.4646 13.2464 23.9154 13.4092 24.2572 13.7217C24.599 14.0342 24.752 14.4427 24.7162 14.9473H24.14C24.1693 14.5859 24.0684 14.2946 23.8373 14.0732C23.6062 13.8519 23.2855 13.738 22.8754 13.7314C22.4522 13.7217 22.0876 13.8112 21.7816 14C21.4789 14.1855 21.308 14.4362 21.2689 14.752C21.2364 14.9863 21.3048 15.1898 21.474 15.3623C21.6466 15.5316 21.9639 15.6829 22.4262 15.8164C22.8884 15.9499 23.2318 16.0768 23.4564 16.1973C24.0652 16.5195 24.3467 16.9688 24.3012 17.5449C24.2784 17.8704 24.1645 18.1488 23.9594 18.3799C23.7543 18.611 23.4792 18.7884 23.1342 18.9121C22.7924 19.0326 22.4278 19.0879 22.0404 19.0781C21.6433 19.0716 21.2901 18.9984 20.9809 18.8584C20.6716 18.7184 20.434 18.5182 20.268 18.2578C20.102 17.9974 20.032 17.693 20.058 17.3447L20.6342 17.3496C20.6016 17.7305 20.7139 18.0316 20.9711 18.2529C21.2315 18.471 21.5961 18.5833 22.0648 18.5898C22.5076 18.5996 22.8835 18.5101 23.1928 18.3213C23.502 18.1325 23.6778 17.877 23.7201 17.5547ZM25.1893 19H24.6082L25.5994 13.3115H26.1805L25.1893 19ZM31.1262 13.8145H29.1096L28.2111 19H27.6301L28.5334 13.8145H26.5168L26.6096 13.3115H31.2189L31.1262 13.8145ZM34.3336 16.2998H31.6041L31.2184 18.5068H34.3678L34.2799 19H30.5543L31.5406 13.3115H35.2516L35.1588 13.8145H32.0338L31.6871 15.8018H34.4215L34.3336 16.2998ZM41.0072 17.208C40.8738 17.8037 40.5889 18.2676 40.1527 18.5996C39.7198 18.9316 39.1859 19.0911 38.5512 19.0781C37.9425 19.0618 37.4688 18.8389 37.1303 18.4092C36.795 17.9795 36.6436 17.4212 36.6762 16.7344L36.6957 16.4902L36.7787 15.8945C36.8536 15.3639 37.0131 14.8952 37.2572 14.4883C37.5014 14.0814 37.8155 13.7673 38.1996 13.5459C38.587 13.3245 39.0118 13.2204 39.474 13.2334C40.0665 13.2464 40.5303 13.4238 40.8656 13.7656C41.2009 14.1042 41.3718 14.5566 41.3783 15.123H40.807C40.7973 14.6868 40.6785 14.3499 40.4506 14.1123C40.226 13.8714 39.8907 13.7445 39.4447 13.7314C38.9011 13.7184 38.4405 13.9072 38.0629 14.2979C37.6885 14.6852 37.4542 15.2158 37.3598 15.8896L37.2768 16.4951C37.2475 16.7393 37.2442 16.9834 37.267 17.2275C37.3061 17.6377 37.4395 17.9632 37.6674 18.2041C37.8952 18.445 38.1996 18.5719 38.5805 18.585C39.5277 18.6175 40.1495 18.1602 40.4457 17.2129L41.0072 17.208ZM43.9168 16.7148H42.2371L41.8367 19H41.2606L42.2469 13.3115L44.1707 13.3164C44.7501 13.3327 45.201 13.4922 45.5232 13.7949C45.8455 14.0944 45.9855 14.4932 45.9432 14.9912C45.9074 15.3753 45.7625 15.7057 45.5086 15.9824C45.2547 16.2559 44.9096 16.4593 44.4734 16.5928L45.5232 18.9463V19H44.908L43.9168 16.7148ZM42.3201 16.2168L43.785 16.2217C44.2016 16.2217 44.5564 16.111 44.8494 15.8896C45.1456 15.6683 45.3149 15.3721 45.3572 15.001C45.3963 14.6689 45.3165 14.3971 45.118 14.1855C44.9227 13.974 44.6297 13.8535 44.2391 13.8242L44.1609 13.8193L42.74 13.8145L42.3201 16.2168ZM49.7609 16.2998H47.0314L46.6457 18.5068H49.7951L49.7072 19H45.9816L46.968 13.3115H50.6789L50.5861 13.8145H47.4611L47.1145 15.8018H49.8488L49.7609 16.2998ZM53.6227 17.4814H50.9566L50.1168 19H49.482L52.7145 13.3115H53.276L54.5113 19H53.9449L53.6227 17.4814ZM51.235 16.9834H53.5152L52.8951 14.0293L51.235 16.9834ZM59.4277 13.8145H57.4111L56.5127 19H55.9316L56.835 13.8145H54.8184L54.9111 13.3115H59.5205L59.4277 13.8145ZM62.6352 16.2998H59.9057L59.5199 18.5068H62.6693L62.5814 19H58.8559L59.8422 13.3115H63.5531L63.4604 13.8145H60.3354L59.9887 15.8018H62.723L62.6352 16.2998ZM62.991 19L63.9773 13.3115L65.6229 13.3164C66.0916 13.3294 66.4969 13.4482 66.8387 13.6729C67.1805 13.8975 67.4311 14.2083 67.5906 14.6055C67.7534 15.0026 67.8055 15.4404 67.7469 15.9189L67.6883 16.4023C67.5776 17.1706 67.2488 17.7956 66.702 18.2773C66.1583 18.7591 65.4829 19 64.6756 19H62.991ZM64.4705 13.8145L63.6551 18.5068L64.6951 18.5117C65.3331 18.5117 65.8703 18.3197 66.3064 17.9355C66.7426 17.5482 67.0079 17.0355 67.1023 16.3975L67.1756 15.9043C67.2472 15.2858 67.1398 14.7878 66.8533 14.4102C66.5701 14.0326 66.1551 13.8356 65.6082 13.8193L64.4705 13.8145ZM69.6109 19L70.5973 13.3115L72.316 13.3164C72.9182 13.3327 73.3723 13.471 73.6783 13.7314C73.9876 13.9886 74.1227 14.3402 74.0836 14.7861C74.0348 15.3916 73.6572 15.818 72.9508 16.0654C73.2405 16.1501 73.4667 16.3096 73.6295 16.5439C73.7923 16.7783 73.8639 17.0518 73.8443 17.3643C73.8118 17.8688 73.6018 18.2676 73.2145 18.5605C72.8303 18.8535 72.3193 19 71.6813 19H69.6109ZM70.6559 16.3096L70.275 18.5068L71.7008 18.5117C72.1305 18.5117 72.4885 18.4108 72.775 18.209C73.0647 18.0039 73.2291 17.7223 73.2682 17.3643C73.304 17.0452 73.2242 16.7946 73.0289 16.6123C72.8369 16.43 72.5569 16.3307 72.1891 16.3145L70.6559 16.3096ZM70.7389 15.8408L71.9645 15.8457C72.4169 15.8457 72.7783 15.7529 73.0484 15.5674C73.3186 15.3818 73.4716 15.1247 73.5074 14.7959C73.54 14.4899 73.4521 14.2523 73.2438 14.083C73.0387 13.9105 72.7099 13.8226 72.2574 13.8193L71.0904 13.8145L70.7389 15.8408ZM76.3535 16.4072L78.6484 13.3115H79.3467L76.5635 16.9639L76.2119 19H75.626L76.002 16.876L74.5225 13.3115H75.1475L76.3535 16.4072ZM6.2168 26.1055C6.16146 26.7272 5.91732 27.2122 5.48438 27.5605C5.05469 27.9056 4.48665 28.0781 3.78027 28.0781C3.01204 28.0781 2.40332 27.834 1.9541 27.3457C1.50488 26.8574 1.28027 26.1787 1.28027 25.3096V24.9775C1.28027 24.4274 1.38281 23.9456 1.58789 23.5322C1.79297 23.1156 2.08757 22.7949 2.47168 22.5703C2.85579 22.3457 3.30176 22.2334 3.80957 22.2334C4.50618 22.2334 5.06608 22.4108 5.48926 22.7656C5.91243 23.1204 6.15658 23.6136 6.22168 24.2451H5.03516C4.99609 23.8805 4.87402 23.6136 4.66895 23.4443C4.46712 23.2718 4.18066 23.1855 3.80957 23.1855C2.91439 23.1855 2.4668 23.7878 2.4668 24.9922V25.3438C2.4668 25.946 2.57585 26.3952 2.79395 26.6914C3.01204 26.9844 3.34082 27.1309 3.78027 27.1309C4.1709 27.1309 4.46712 27.0511 4.66895 26.8916C4.87077 26.7321 4.99284 26.4701 5.03516 26.1055H6.2168ZM11.5615 25.2852C11.5615 26.1445 11.3255 26.8249 10.8535 27.3262C10.3848 27.8275 9.76465 28.0781 8.99316 28.0781C8.22493 28.0781 7.60156 27.8275 7.12305 27.3262C6.64453 26.8216 6.40527 26.1331 6.40527 25.2607V25.0361C6.40527 24.4762 6.5127 23.9831 6.72754 23.5566C6.94564 23.127 7.25 22.7998 7.64062 22.5752C8.03125 22.3473 8.47884 22.2334 8.9834 22.2334C9.76465 22.2334 10.3896 22.4889 10.8584 23C11.3271 23.5078 11.5615 24.1963 11.5615 25.0654V25.2852ZM10.3799 25.0264C10.3799 24.4307 10.2578 23.9766 10.0137 23.6641C9.76953 23.3516 9.42611 23.1953 8.9834 23.1953C8.5472 23.1953 8.2054 23.3516 7.95801 23.6641C7.71061 23.9766 7.58691 24.4307 7.58691 25.0264V25.2852C7.58691 25.8646 7.71061 26.3171 7.95801 26.6426C8.20866 26.9648 8.55371 27.126 8.99316 27.126C9.43587 27.126 9.77767 26.9681 10.0186 26.6523C10.2594 26.3333 10.3799 25.8776 10.3799 25.2852V25.0264ZM13.5762 22.3115L15.2217 26.4277L16.8525 22.3115H18.4053V28H17.2236V26.4619L17.3457 23.6787L15.627 28H14.8066L13.0928 23.7031L13.2148 26.4619V28H12.0332V22.3115H13.5762ZM20.249 26.0029V28H19.0625V22.3115H21.4307C22.1208 22.3115 22.6709 22.4857 23.0811 22.834C23.4945 23.179 23.7012 23.6331 23.7012 24.1963C23.7012 24.7464 23.5042 25.1826 23.1104 25.5049C22.7197 25.8271 22.1794 25.9932 21.4893 26.0029H20.249ZM20.249 25.0459H21.4307C21.7692 25.0459 22.0345 24.9743 22.2266 24.8311C22.4219 24.6878 22.5195 24.4795 22.5195 24.2061C22.5195 23.9229 22.4202 23.6966 22.2217 23.5273C22.0264 23.3548 21.7643 23.2686 21.4355 23.2686H20.249V25.0459ZM25.2861 27.0527H27.9961V28H24.0996V22.3115H25.2861V27.0527ZM31.8955 25.5391H29.4443V27.0527H32.3154V28H28.2578V22.3115H32.3008V23.2686H29.4443V24.5869H31.8955V25.5391ZM34.7158 24.2793L35.8975 22.3115H37.2842L35.4531 25.1338L37.3867 28H35.9805L34.7354 26.0029L33.5146 28H32.1279L34.0078 25.1338L32.1719 22.3115H33.5488L34.7158 24.2793ZM39.5508 28V22.3115H41.4014C41.9352 22.3115 42.4121 22.4238 42.832 22.6484C43.2552 22.873 43.584 23.1904 43.8184 23.6006C44.0527 24.0075 44.1732 24.4697 44.1797 24.9873V25.2852C44.1797 25.8158 44.0625 26.2878 43.8281 26.7012C43.597 27.1146 43.2666 27.4352 42.8369 27.6631C42.4105 27.8877 41.9238 28 41.377 28H39.5508ZM40.7373 23.2686V27.0527H41.3721C42.4365 27.0527 42.9785 26.4863 42.998 25.3535V25.0264C42.998 23.8805 42.4919 23.2946 41.4795 23.2686H40.7373ZM46.6045 24.9043L47.9229 22.3115H49.2266L47.1807 26.0273V28H45.999V25.9639L43.9873 22.3115H45.291L46.6045 24.9043ZM54.2588 28H53.0771L50.5186 24.1182V28H49.332V22.3115H50.5186L53.0771 26.1982V22.3115H54.2588V28ZM58.3975 26.7842H56.0439L55.5801 28H54.3838L56.6836 22.3115H57.7725L60.0625 28H58.8613L58.3975 26.7842ZM56.3906 25.8809H58.0508L57.2207 23.7227L56.3906 25.8809ZM61.7305 22.3115L63.376 26.4277L65.0068 22.3115H66.5596V28H65.3779V26.4619L65.5 23.6787L63.7812 28H62.9609L61.2471 23.7031L61.3691 26.4619V28H60.1875V22.3115H61.7305ZM68.4717 28H67.29V22.3115H68.4717V28ZM73.9434 26.1055C73.888 26.7272 73.6439 27.2122 73.2109 27.5605C72.7812 27.9056 72.2132 28.0781 71.5068 28.0781C70.7386 28.0781 70.1299 27.834 69.6807 27.3457C69.2314 26.8574 69.0068 26.1787 69.0068 25.3096V24.9775C69.0068 24.4274 69.1094 23.9456 69.3145 23.5322C69.5195 23.1156 69.8141 22.7949 70.1982 22.5703C70.5824 22.3457 71.0283 22.2334 71.5361 22.2334C72.2327 22.2334 72.7926 22.4108 73.2158 22.7656C73.639 23.1204 73.8831 23.6136 73.9482 24.2451H72.7617C72.7227 23.8805 72.6006 23.6136 72.3955 23.4443C72.1937 23.2718 71.9072 23.1855 71.5361 23.1855C70.641 23.1855 70.1934 23.7878 70.1934 24.9922V25.3438C70.1934 25.946 70.3024 26.3952 70.5205 26.6914C70.7386 26.9844 71.0674 27.1309 71.5068 27.1309C71.8975 27.1309 72.1937 27.0511 72.3955 26.8916C72.5973 26.7321 72.7194 26.4701 72.7617 26.1055H73.9434ZM77.5059 26.5059C77.5059 26.291 77.4212 26.1201 77.252 25.9932C77.0827 25.863 76.749 25.736 76.251 25.6123C75.7562 25.4886 75.3656 25.347 75.0791 25.1875C74.7926 25.028 74.5811 24.8424 74.4443 24.6309C74.3109 24.416 74.2441 24.1589 74.2441 23.8594C74.2441 23.3841 74.4443 22.9951 74.8447 22.6924C75.2451 22.3864 75.7627 22.2334 76.3975 22.2334C77.0811 22.2334 77.6296 22.3962 78.043 22.7217C78.4564 23.0472 78.6631 23.4704 78.6631 23.9912H77.4766C77.4766 23.7275 77.3789 23.5208 77.1836 23.3711C76.9883 23.2181 76.7262 23.1416 76.3975 23.1416C76.0882 23.1416 75.8441 23.2051 75.665 23.332C75.486 23.4557 75.3965 23.6217 75.3965 23.8301C75.3965 24.0189 75.4876 24.1751 75.6699 24.2988C75.8555 24.4225 76.181 24.5413 76.6465 24.6553C77.3659 24.8311 77.8818 25.0638 78.1943 25.3535C78.5068 25.6432 78.6631 26.0192 78.6631 26.4814C78.6631 26.9795 78.4613 27.3701 78.0576 27.6533C77.654 27.9365 77.1201 28.0781 76.4561 28.0781C76.0068 28.0781 75.5951 28.0033 75.2207 27.8535C74.8496 27.7005 74.5615 27.4857 74.3564 27.209C74.1514 26.9323 74.0488 26.61 74.0488 26.2422H75.2402C75.2402 26.8672 75.6569 27.1797 76.4902 27.1797C76.806 27.1797 77.0534 27.1195 77.2324 26.999C77.4147 26.8786 77.5059 26.7142 77.5059 26.5059Z" fill="#464646"/>
</svg>
